<svg width="64" height="64" viewBox="0 0 64 64" fill="none" xmlns="http://www.w3.org/2000/svg">
  <rect width="64" height="64" rx="14" fill="#020617"/>
  <rect x="11" y="13" width="42" height="42" rx="12" fill="#FFFFFF"/>
  <circle cx="51" cy="13" r="8" fill="#34D399" stroke="#020617" stroke-width="3"/>
  <path d="M24 28V22C24 20.8954 24.8954 20 26 20H38C39.1046 20 40 20.8954 40 22V28" stroke="#020617" stroke-width="3" stroke-linecap="round" stroke-linejoin="round"/>
  <path d="M24 42H21C19.8954 42 19 41.1046 19 40V31C19 29.8954 19.8954 29 21 29H43C44.1046 29 45 29.8954 45 31V40C45 41.1046 44.1046 42 43 42H40" stroke="#020617" stroke-width="3" stroke-linecap="round" stroke-linejoin="round"/>
  <path d="M25 37H39V46H25V37Z" stroke="#020617" stroke-width="3" stroke-linecap="round" stroke-linejoin="round"/>
  <path d="M39 34H39.01" stroke="#020617" stroke-width="3" stroke-linecap="round"/>
</svg>
